<svg width="22" height="20" viewBox="0 0 22 20" fill="none" xmlns="http://www.w3.org/2000/svg">
<path fill-rule="evenodd" clip-rule="evenodd" d="M16.5 18C16.7761 18 17 17.7762 17 17.5V8.37821C17 8.23733 16.9406 8.10299 16.8363 8.00822L11.3363 3.00873C11.1456 2.83537 10.8544 2.83537 10.6637 3.00872L5.16368 8.00822C5.05943 8.10299 5 8.23733 5 8.37821V17.5C5 17.7762 5.22386 18 5.5 18H16.5ZM18 20H4C3.73478 20 3.48043 19.8947 3.29289 19.7071C3.10536 19.5196 3 19.2652 3 19V10.5C3 10.2239 2.77614 10 2.5 10H1.29332C0.836304 10 0.61882 9.43746 0.956989 9.13004L10.327 0.612012C10.5111 0.444489 10.7511 0.351654 11 0.351654C11.2489 0.351654 11.4889 0.444489 11.673 0.612012L21.043 9.13004C21.3812 9.43746 21.1637 10 20.7067 10H19.5C19.2239 10 19 10.2239 19 10.5V19C19 19.2652 18.8946 19.5196 18.7071 19.7071C18.5196 19.8947 18.2652 20 18 20Z" fill="#A6A6A6"/>
<path d="M7 13.5C7 13.2239 7.2254 12.9958 7.49771 13.0416C8.10873 13.1444 8.67742 13.4348 9.12132 13.8787C9.56522 14.3226 9.85564 14.8913 9.95844 15.5023C10.0043 15.7746 9.77614 16 9.5 16H7.5C7.22386 16 7 15.7762 7 15.5V13.5Z" fill="#A6A6A6"/>
<path d="M7 9.50001C7 9.22387 7.22417 8.99815 7.49961 9.01785C9.17352 9.13756 10.7553 9.85577 11.9497 11.0503C13.1442 12.2448 13.8625 13.8265 13.9822 15.5004C14.0019 15.7758 13.7761 16 13.5 16H12.5C12.2239 16 12.0026 15.7756 11.975 15.5008C11.8604 14.3581 11.3548 13.2838 10.5355 12.4645C9.71626 11.6452 8.64194 11.1396 7.49919 11.025C7.22442 10.9974 7 10.7762 7 10.5V9.50001Z" fill="#A6A6A6"/>
</svg>
